<svg xmlns="http://www.w3.org/2000/svg" width="800" height="200" viewBox="0 0 800 200"><defs><filter id="a" width="140%" height="140%" x="-20%" y="-20%"><feGaussianBlur result="blur" stdDeviation="5"/><feComposite in="SourceGraphic" in2="blur"/></filter></defs><path fill="#ff7a1a" d="M120 160C80 120 40 90 40 60c0-25 20-40 40-40 15 0 30 10 40 25 10-15 25-25 40-25 20 0 40 15 40 40 0 30-40 60-80 100" opacity=".1"/><path fill="#ff7a1a" d="M120 150c-35-35-70-65-70-92 0-20 15-33 30-33 12 0 25 10 40 25 15-15 28-25 40-25 15 0 30 13 30 33 0 27-35 57-70 92" opacity=".2"/><path fill="#ff7a1a" d="M80 120C50 90 20 60 20 35c0-15 10-25 25-25 10 0 25 10 35 25 10-15 25-25 35-25 15 0 25 10 25 25 0 25-30 55-60 85" filter="url(#a)" transform="translate(40 20)"/><g transform="translate(120 75)"><circle r="16" fill="#fff"/><rect width="10" height="22" x="-5" fill="#fff" rx="2"/><circle cy="-4" r="5" fill="#ff7a1a"/><path fill="#ff7a1a" d="M-2.5-4h5V6h-5z"/></g><path fill="#ff7a1a" d="M120 170c-5-5-10-10-10-13 0-2 2-4 5-4 2 0 4 2 5 4 1-2 3-4 5-4 3 0 5 2 5 4 0 3-5 8-10 13" opacity=".6"/><g font-family="system-ui, -apple-system, sans-serif"><text fill="#ff7a1a" font-size="80" font-weight="800" transform="translate(220 105)">love</text><text x="165" fill="#111827" font-size="80" font-weight="800" transform="translate(220 105)">you</text><text x="5" y="45" fill="#ff7a1a" font-size="32" font-weight="600" transform="translate(220 105)">tools.</text></g><g fill="#ff7a1a" transform="translate(720 80)"><rect width="40" height="4" rx="2"/><rect width="30" height="4" x="10" y="12" opacity=".6" rx="2"/><rect width="20" height="4" x="20" y="24" opacity=".3" rx="2"/></g></svg>