<svg xmlns="http://www.w3.org/2000/svg" width="160" height="160" viewBox="0 0 160 160"><defs><filter id="a" width="140%" height="140%" x="-20%" y="-20%"><feGaussianBlur result="blur" stdDeviation="5"/><feComposite in="SourceGraphic" in2="blur"/></filter></defs><path fill="#ff7a1a" d="M80 140C40 100 0 70 0 40 0 15 20 0 40 0c15 0 30 10 40 25 10-15 25-25 40-25 20 0 40 15 40 40 0 30-40 60-80 100" opacity=".1"/><path fill="#ff7a1a" d="M80 130C45 95 10 65 10 38 10 18 25 5 40 5c12 0 25 10 40 25 15-15 28-25 40-25 15 0 30 13 30 33 0 27-35 57-70 92" opacity=".2"/><path fill="#ff7a1a" d="M80 120C50 90 20 60 20 35c0-15 10-25 25-25 10 0 25 10 35 25 10-15 25-25 35-25 15 0 25 10 25 25 0 25-30 55-60 85" filter="url(#a)"/><g transform="translate(80 55)"><circle r="16" fill="#fff"/><rect width="10" height="22" x="-5" fill="#fff" rx="2"/><circle cy="-4" r="5" fill="#ff7a1a"/><path fill="#ff7a1a" d="M-2.5-4h5V6h-5z"/></g><path fill="#ff7a1a" d="M80 150c-5-5-10-10-10-13 0-2 2-4 5-4 2 0 4 2 5 4 1-2 3-4 5-4 3 0 5 2 5 4 0 3-5 8-10 13" opacity=".6"/></svg>